<svg width="297" height="57" viewBox="0 0 297 57" fill="none" xmlns="http://www.w3.org/2000/svg">
<g clip-path="url(#clip0_4_469)">
<path d="M30.582 3.13898H28.257V7.61498H30.582V3.13898Z" fill="#1F5E8D"/>
<mask id="mask0_4_469" style="mask-type:luminance" maskUnits="userSpaceOnUse" x="-8" y="0" width="306" height="57">
<path d="M297.349 0H-8V57H297.349V0Z" fill="white"/>
</mask>
<g mask="url(#mask0_4_469)">
<path d="M52.731 30.402C52.731 25.7917 51.3639 21.285 48.8026 17.4517C46.2412 13.6184 42.6007 10.6306 38.3414 8.86637C34.082 7.10209 29.3952 6.64048 24.8735 7.5399C20.3518 8.43932 16.1983 10.6594 12.9384 13.9193C9.67839 17.1793 7.45832 21.3328 6.5589 25.8545C5.65948 30.3761 6.1211 35.063 7.88537 39.3223C9.64965 43.5817 12.6374 47.2222 16.4707 49.7836C20.304 52.3449 24.8107 53.712 29.421 53.712C35.6032 53.712 41.5322 51.2561 45.9037 46.8847C50.2751 42.5132 52.731 36.5842 52.731 30.402Z" fill="#B1DEE5"/>
<path d="M50.325 56.566C50.585 56.3849 50.8069 56.1543 50.9778 55.8875C51.1487 55.6206 51.2653 55.3228 51.321 55.0108C51.3768 54.6989 51.3704 54.379 51.3025 54.0695C51.2345 53.76 51.1063 53.4669 50.925 53.207L46.486 46.843L42.666 49.506C42.6479 49.5186 42.6324 49.5347 42.6205 49.5533C42.6086 49.5718 42.6004 49.5926 42.5965 49.6143C42.5926 49.636 42.5931 49.6583 42.5978 49.6799C42.6025 49.7015 42.6114 49.7219 42.624 49.74L46.966 55.969C47.1471 56.2291 47.3777 56.4508 47.6445 56.6217C47.9114 56.7926 48.2093 56.9093 48.5212 56.965C48.8332 57.0207 49.153 57.0144 49.4625 56.9464C49.772 56.8785 50.0651 56.7503 50.325 56.569" fill="#1F5E8D"/>
<path d="M8.48602 56.074C8.22599 55.8929 8.00417 55.6624 7.83328 55.3955C7.66238 55.1287 7.54577 54.8307 7.49005 54.5188C7.43433 54.2069 7.44059 53.887 7.50854 53.5775C7.57648 53.268 7.70475 52.9749 7.88601 52.715L12.324 46.349L16.144 49.012C16.1621 49.0246 16.1776 49.0406 16.1895 49.0592C16.2015 49.0778 16.2096 49.0986 16.2135 49.1203C16.2174 49.142 16.217 49.1643 16.2123 49.1859C16.2076 49.2075 16.1987 49.2279 16.186 49.246L11.844 55.475C11.6629 55.735 11.4324 55.9569 11.1655 56.1277C10.8987 56.2986 10.6008 56.4153 10.2888 56.471C9.9769 56.5267 9.65704 56.5204 9.34753 56.4525C9.03802 56.3845 8.74493 56.2563 8.48501 56.075" fill="#1F5E8D"/>
</g>
<mask id="mask1_4_469" style="mask-type:luminance" maskUnits="userSpaceOnUse" x="0" y="2" width="31" height="26">
<path d="M2.09505 9.81898L0.995049 15.399C0.995049 15.399 -1.05694 30.028 7.54606 26.718C7.54606 26.718 8.49706 10.488 26.0091 8.55298C39.2391 7.09098 21.723 3.06698 11.262 2.29198C11.176 2.28598 11.088 2.28198 10.999 2.28198C7.68805 2.28198 2.71605 6.65298 2.09905 9.81898" fill="white"/>
</mask>
<g mask="url(#mask1_4_469)">
<path d="M25.8051 15.374C25.8051 17.5933 25.147 19.7627 23.914 21.608C22.681 23.4533 20.9285 24.8915 18.8782 25.7408C16.8278 26.5901 14.5716 26.8123 12.395 26.3794C10.2183 25.9464 8.21891 24.8777 6.64962 23.3084C5.08034 21.7391 4.01165 19.7397 3.57868 17.5631C3.14572 15.3864 3.36793 13.1303 4.21722 11.0799C5.06651 9.02952 6.50473 7.27704 8.35001 6.04406C10.1953 4.81108 12.3648 4.15298 14.5841 4.15298C17.5601 4.15298 20.4142 5.33519 22.5185 7.43954C24.6229 9.54388 25.8051 12.398 25.8051 15.374Z" fill="#FFD151"/>
</g>
<mask id="mask2_4_469" style="mask-type:luminance" maskUnits="userSpaceOnUse" x="27" y="1" width="31" height="26">
<path d="M46.8911 1.76501C36.4301 2.54001 18.9131 6.56501 32.1441 8.02601C49.6561 9.96101 50.6071 26.191 50.6071 26.191C59.2071 29.498 57.1541 14.872 57.1541 14.872L56.054 9.29201C55.432 6.12601 50.4601 1.75401 47.1541 1.75501C47.0651 1.75501 46.9771 1.75501 46.8911 1.76501Z" fill="white"/>
</mask>
<g mask="url(#mask2_4_469)">
<path d="M55.3971 15.425C55.3971 17.6443 54.7389 19.8138 53.506 21.6591C52.273 23.5043 50.5205 24.9426 48.4701 25.7919C46.4198 26.6411 44.1636 26.8634 41.9869 26.4304C39.8103 25.9974 37.8109 24.9287 36.2416 23.3595C34.6723 21.7902 33.6036 19.7908 33.1706 17.6141C32.7377 15.4375 32.9599 13.1813 33.8092 11.1309C34.6585 9.08054 36.0967 7.32806 37.942 6.09509C39.7873 4.86211 41.9568 4.204 44.1761 4.204C47.1521 4.204 50.0062 5.38621 52.1105 7.49055C54.2149 9.5949 55.3971 12.449 55.3971 15.425Z" fill="#FFD151"/>
</g>
<mask id="mask3_4_469" style="mask-type:luminance" maskUnits="userSpaceOnUse" x="-8" y="0" width="306" height="57">
<path d="M297.349 0H-8V57H297.349V0Z" fill="white"/>
</mask>
<g mask="url(#mask3_4_469)">
<path d="M33.593 52.54H19.742C19.742 52.54 20.901 47.893 21.184 47.192C22.0353 45.0492 22.6845 42.8316 23.123 40.568C23.318 38.659 23.681 34.749 23.077 32.352C23.077 32.352 22.999 31.631 22.603 31.612C22.459 31.605 20.648 31.8 17.245 30.021C14.564 28.621 14.719 28.716 14.719 28.716C14.2971 28.6105 13.8862 28.4649 13.492 28.281C13.141 28.073 12.281 27.476 11.813 27.252C10.9311 26.7346 10.105 26.1274 9.34801 25.44C8.74801 24.856 6.61001 22.74 6.03601 22.225C5.46201 21.71 5.136 21.28 4.653 21.261C4.28915 21.2695 3.92747 21.2029 3.59056 21.0652C3.25365 20.9276 2.94877 20.7219 2.69501 20.461C2.34571 20.1345 1.95822 19.8515 1.541 19.618C1.346 19.518 0.679011 19.189 0.577011 19.141C0.475011 19.093 0.246007 18.907 0.348007 18.722C0.450007 18.537 0.616007 18.566 0.848007 18.659C1.08001 18.752 1.84801 19.112 1.84801 19.112C1.84801 19.112 2.04301 19.127 2.06201 19.088C2.08101 19.049 2.033 18.898 1.852 18.796C1.671 18.694 0.298011 17.749 0.284011 17.744C0.270011 17.739 -0.0619861 17.531 0.0990139 17.286C0.260014 17.041 0.406009 17.051 0.732009 17.228C1.05801 17.405 2.257 18.163 2.257 18.163C2.257 18.163 2.423 18.29 2.496 18.192C2.569 18.094 2.262 17.846 2.218 17.822C2.174 17.798 0.655014 16.643 0.640014 16.629C0.625014 16.615 0.240007 16.372 0.445007 16.093C0.672007 15.793 1.025 16.025 1.166 16.137C1.307 16.249 2.72501 17.337 2.72501 17.337C2.72501 17.337 2.97501 17.577 3.07101 17.469C3.16701 17.361 2.79001 16.984 2.69301 16.912C2.61201 16.853 1.649 16.056 1.649 16.056C1.649 16.056 1.30301 15.764 1.54901 15.515C1.79501 15.266 2.16301 15.583 2.26001 15.661C2.35701 15.739 3.61901 16.82 3.85301 16.986C4.08701 17.152 4.59301 17.497 4.75301 17.468C4.91301 17.439 4.99701 17.41 4.90901 17.259C4.72434 16.9619 4.59555 16.6335 4.52901 16.29C4.45601 15.842 4.617 15.603 4.748 15.574C4.748 15.574 5.02101 15.491 5.24001 16.042C5.38485 16.4423 5.56245 16.8299 5.77101 17.201C6.00754 17.4762 6.1715 17.8062 6.248 18.161C6.30962 18.6223 6.27558 19.0914 6.14801 19.539C7.00646 20.3078 7.98119 20.9359 9.03601 21.4C11.179 22.465 14.852 24 15.466 24.323C16.245 24.732 17.388 25.623 17.596 25.648C18.5414 25.8765 19.4477 26.2442 20.285 26.739C20.285 26.739 21.876 26.739 22.239 26.7C22.7699 26.6103 23.3131 26.6236 23.839 26.739C24.6595 26.9375 25.4579 27.2182 26.222 27.577C26.5082 27.5136 26.8029 27.4987 27.094 27.533C27.1584 27.4998 27.2174 27.4569 27.269 27.406C27.2948 27.3799 27.3144 27.3485 27.3265 27.3139C27.3386 27.2793 27.3429 27.2424 27.339 27.206C27.286 27.0593 27.2523 26.9064 27.239 26.751C27.226 26.524 27.174 25.569 27.174 25.569L27.023 25.286C26.9697 25.2044 26.921 25.12 26.877 25.033C26.8367 24.9038 26.8234 24.7676 26.838 24.633C26.829 24.368 26.819 24.161 26.828 24.01C26.857 23.859 27.062 23.684 26.974 23.796C27.027 23.7171 27.0612 23.6271 27.074 23.533C27.103 23.363 27.118 22.983 27.152 22.758C27.2491 22.1245 27.448 21.511 27.741 20.941C27.9918 20.5958 28.3207 20.3149 28.7007 20.1211C29.0808 19.9273 29.5014 19.8262 29.928 19.826C31.228 19.758 32.665 20.657 32.808 21.573C32.9511 22.3303 32.9555 23.1072 32.821 23.866C32.8844 23.937 32.9388 24.0156 32.983 24.1C33.0068 24.3745 33.0068 24.6505 32.983 24.925C32.8952 25.325 32.6856 25.688 32.383 25.964C32.389 26.4291 32.3096 26.8914 32.149 27.328C32.2797 27.3514 32.4066 27.3928 32.526 27.451C32.7614 27.6045 33.0318 27.696 33.312 27.717C33.512 27.672 33.539 27.73 34.091 27.34C34.7375 26.9825 35.4443 26.7469 36.176 26.645C37.0121 26.5817 37.851 26.5643 38.689 26.593C38.9864 26.5159 39.274 26.4049 39.546 26.262C39.754 26.162 42.098 24.905 42.3 24.862C42.562 24.553 42.879 24.2953 43.235 24.102C43.6532 23.8829 44.0824 23.6857 44.521 23.511C44.9393 23.2819 45.3296 23.0051 45.684 22.686C46.0422 22.3267 46.4413 22.0105 46.873 21.744C47.347 21.465 50.549 19.426 51.004 18.644C50.8993 18.365 50.8379 18.0716 50.822 17.774C50.8064 17.3792 50.8547 16.9844 50.965 16.605C51.1451 16.1875 51.2793 15.7516 51.365 15.305C51.419 14.876 51.588 14.54 51.886 14.526C52.149 14.513 52.203 14.969 52.186 15.14C52.1719 15.4636 52.1144 15.7838 52.015 16.092C51.877 16.405 51.991 16.563 51.991 16.563C51.991 16.563 52.049 16.641 52.683 16.063C53.317 15.485 54.305 14.402 54.315 14.387C54.325 14.372 54.744 13.842 55.026 14.07C55.308 14.298 55.089 14.538 54.851 14.791C54.613 15.044 53.93 15.791 53.891 15.858C53.852 15.925 53.716 16.15 53.791 16.209C53.866 16.268 54.113 16.092 54.215 15.975C54.317 15.858 55.515 14.684 55.515 14.684C55.515 14.684 55.894 14.243 56.198 14.496C56.542 14.782 56.029 15.152 56.029 15.152C56.029 15.152 54.743 16.379 54.613 16.535C54.466 16.712 54.423 16.769 54.486 16.856C54.549 16.943 54.812 16.681 54.812 16.681L56.064 15.702C56.064 15.702 56.464 15.366 56.683 15.602C56.902 15.838 56.629 16.102 56.503 16.191C56.377 16.28 55.146 17.35 55.146 17.35C55.146 17.35 54.906 17.564 54.993 17.667C55.053 17.737 55.293 17.638 55.349 17.579C55.405 17.52 56.127 17.103 56.127 17.103C56.127 17.103 56.471 16.856 56.627 17.103C56.783 17.35 56.432 17.571 56.306 17.649C56.18 17.727 55.259 18.36 55.083 18.536C54.907 18.712 54.494 19.145 54.416 19.228C54.2049 19.4759 53.955 19.688 53.676 19.856C53.3616 20.0108 53.0237 20.1122 52.676 20.156C52.3937 20.2405 52.1475 20.4164 51.976 20.656C51.976 20.656 50.403 22.478 49.351 23.842C48.583 24.879 47.7152 25.8383 46.76 26.706C46.468 26.881 44.032 28.46 43.584 28.732C43.136 29.004 42.551 29.609 42.006 29.901C40.9355 30.4962 39.7973 30.9605 38.616 31.284C37.916 31.323 36.57 31.479 36.2 32.317C35.6232 33.8234 35.275 35.4076 35.167 37.017C34.953 39.277 34.251 45.161 34.154 46.135C33.8017 48.2572 33.6162 50.4038 33.599 52.555" fill="#0059A6"/>
<path d="M29.367 54.759C23.3545 54.7513 17.5591 52.5108 13.105 48.4719C8.65095 44.4331 5.85575 38.8839 5.26164 32.9007C4.66752 26.9176 6.31684 20.927 9.88965 16.0911C13.4625 11.2552 18.7041 7.9187 24.5977 6.72877C30.4913 5.53884 36.6169 6.58033 41.7861 9.65122C46.9553 12.7221 50.7996 17.6035 52.5734 23.3484C54.3472 29.0934 53.924 35.2924 51.3859 40.743C48.8477 46.1936 44.3756 50.5072 38.837 52.847C35.8411 54.115 32.6202 54.7653 29.367 54.759ZM29.367 8.745C25.0779 8.745 20.8852 10.0169 17.3189 12.3997C13.7527 14.7826 10.9731 18.1695 9.33177 22.1321C7.69041 26.0947 7.26095 30.4551 8.09771 34.6617C8.93447 38.8684 10.9999 42.7325 14.0327 45.7653C17.0655 48.7982 20.9296 50.8635 25.1363 51.7003C29.343 52.5371 33.7033 52.1076 37.6659 50.4663C41.6285 48.8249 45.0154 46.0453 47.3983 42.4791C49.7812 38.9129 51.053 34.7201 51.053 30.431C51.0464 24.6816 48.7595 19.1695 44.694 15.104C40.6285 11.0385 35.1165 8.75162 29.367 8.745Z" fill="#2276AA"/>
</g>
<mask id="mask4_4_469" style="mask-type:luminance" maskUnits="userSpaceOnUse" x="0" y="0" width="57" height="38">
<path d="M57 0H0V38H57V0Z" fill="white"/>
</mask>
<g mask="url(#mask4_4_469)">
<path d="M33.638 52.54H19.783C19.783 52.54 20.942 47.893 21.225 47.192C22.0763 45.0492 22.7254 42.8316 23.164 40.568C23.359 38.659 23.722 34.749 23.118 32.352C23.118 32.352 23.04 31.631 22.644 31.612C22.5 31.605 20.689 31.8 17.286 30.021C14.605 28.621 14.76 28.716 14.76 28.716C14.3381 28.6105 13.9272 28.4649 13.533 28.281C13.182 28.073 12.322 27.476 11.854 27.252C10.9721 26.7346 10.146 26.1274 9.38901 25.44C8.78901 24.856 6.65201 22.74 6.07701 22.225C5.50201 21.71 5.17701 21.28 4.69401 21.261C4.33017 21.2695 3.96847 21.2029 3.63156 21.0652C3.29465 20.9276 2.98977 20.7219 2.73601 20.461C2.38671 20.1345 1.99924 19.8515 1.58201 19.618C1.38701 19.518 0.72001 19.189 0.61801 19.141C0.51601 19.093 0.287006 18.907 0.389006 18.722C0.491006 18.537 0.657006 18.566 0.889006 18.659C1.12101 18.752 1.88901 19.112 1.88901 19.112C1.88901 19.112 2.08401 19.127 2.10301 19.088C2.12201 19.049 2.07401 18.898 1.89401 18.796C1.71401 18.694 0.340017 17.749 0.326017 17.744C0.312017 17.739 -0.0199955 17.531 0.141005 17.286C0.302005 17.041 0.448015 17.051 0.774015 17.228C1.10002 17.405 2.29901 18.163 2.29901 18.163C2.29901 18.163 2.46501 18.29 2.53801 18.192C2.61101 18.094 2.30401 17.846 2.26001 17.822C2.21601 17.798 0.696005 16.643 0.682005 16.629C0.668005 16.615 0.282013 16.372 0.487013 16.093C0.714013 15.793 1.06701 16.025 1.20801 16.137C1.34901 16.249 2.76701 17.337 2.76701 17.337C2.76701 17.337 3.017 17.577 3.113 17.469C3.209 17.361 2.83201 16.984 2.73501 16.912C2.65401 16.853 1.69101 16.056 1.69101 16.056C1.69101 16.056 1.34502 15.764 1.59102 15.515C1.83702 15.266 2.20502 15.583 2.30202 15.661C2.39902 15.739 3.66102 16.82 3.89502 16.986C4.12902 17.152 4.63501 17.497 4.79501 17.468C4.95501 17.439 5.03902 17.41 4.95102 17.259C4.76639 16.9618 4.6376 16.6334 4.57101 16.29C4.49801 15.842 4.65901 15.603 4.79001 15.574C4.79001 15.574 5.06301 15.491 5.28201 16.042C5.42686 16.4423 5.60447 16.8299 5.81302 17.201C6.04955 17.4762 6.21351 17.8062 6.29001 18.161C6.35162 18.6223 6.31759 19.0914 6.19002 19.539C7.04847 20.3078 8.02319 20.9359 9.07802 21.4C11.221 22.465 14.894 24 15.508 24.323C16.287 24.732 17.43 25.623 17.638 25.648C18.5834 25.8765 19.4897 26.2442 20.327 26.739C20.327 26.739 21.918 26.739 22.281 26.7C22.8119 26.6103 23.3551 26.6236 23.881 26.739C24.7015 26.9374 25.4999 27.2182 26.264 27.577C26.5502 27.5136 26.8449 27.4987 27.136 27.533C27.2004 27.4998 27.2595 27.4569 27.311 27.406C27.3368 27.3799 27.3564 27.3485 27.3685 27.3139C27.3807 27.2793 27.3849 27.2424 27.381 27.206C27.3279 27.0594 27.2943 26.9064 27.281 26.751C27.268 26.524 27.216 25.569 27.216 25.569L27.065 25.286C27.0117 25.2044 26.963 25.12 26.919 25.033C26.8787 24.9038 26.8654 24.7676 26.88 24.633C26.871 24.368 26.861 24.161 26.87 24.01C26.899 23.859 27.104 23.684 27.016 23.796C27.069 23.7171 27.1032 23.6271 27.116 23.533C27.145 23.363 27.16 22.983 27.194 22.758C27.2911 22.1245 27.49 21.511 27.783 20.941C28.0338 20.5958 28.3627 20.3149 28.7428 20.1211C29.1228 19.9273 29.5434 19.8262 29.97 19.826C31.27 19.758 32.707 20.657 32.85 21.573C32.993 22.3303 32.9975 23.1072 32.863 23.866C32.9265 23.937 32.9809 24.0156 33.025 24.1C33.0488 24.3745 33.0488 24.6505 33.025 24.925C32.9372 25.325 32.7276 25.688 32.425 25.964C32.431 26.4291 32.3516 26.8914 32.191 27.328C32.3217 27.3514 32.4486 27.3928 32.568 27.451C32.8034 27.6045 33.0738 27.696 33.354 27.717C33.554 27.672 33.581 27.73 34.133 27.34C34.7795 26.9825 35.4863 26.7469 36.218 26.645C37.0541 26.5817 37.893 26.5643 38.731 26.593C39.0284 26.5159 39.316 26.4049 39.588 26.262C39.796 26.162 42.14 24.905 42.342 24.862C42.604 24.553 42.921 24.2953 43.277 24.102C43.6952 23.8829 44.1244 23.6857 44.563 23.511C44.9813 23.2819 45.3716 23.0051 45.726 22.686C46.0842 22.3267 46.4833 22.0105 46.915 21.744C47.389 21.465 50.591 19.426 51.046 18.644C50.9412 18.365 50.8799 18.0716 50.864 17.774C50.8484 17.3792 50.8967 16.9844 51.007 16.605C51.1871 16.1875 51.3213 15.7516 51.407 15.305C51.461 14.876 51.63 14.54 51.928 14.526C52.191 14.513 52.245 14.969 52.228 15.14C52.2139 15.4636 52.1564 15.7838 52.057 16.092C51.919 16.405 52.033 16.563 52.033 16.563C52.033 16.563 52.091 16.641 52.725 16.063C53.359 15.485 54.347 14.402 54.357 14.387C54.367 14.372 54.786 13.842 55.068 14.07C55.35 14.298 55.131 14.538 54.893 14.791C54.655 15.044 53.972 15.791 53.933 15.858C53.894 15.925 53.758 16.15 53.833 16.209C53.908 16.268 54.155 16.092 54.257 15.975C54.359 15.858 55.557 14.684 55.557 14.684C55.557 14.684 55.936 14.243 56.24 14.496C56.584 14.782 56.071 15.152 56.071 15.152C56.071 15.152 54.785 16.379 54.655 16.535C54.508 16.712 54.465 16.769 54.528 16.856C54.591 16.943 54.854 16.681 54.854 16.681L56.106 15.702C56.106 15.702 56.506 15.366 56.725 15.602C56.944 15.838 56.671 16.102 56.545 16.191C56.419 16.28 55.187 17.35 55.187 17.35C55.187 17.35 54.947 17.564 55.035 17.667C55.095 17.737 55.335 17.638 55.391 17.579C55.447 17.52 56.169 17.103 56.169 17.103C56.169 17.103 56.513 16.856 56.669 17.103C56.825 17.35 56.474 17.571 56.348 17.649C55.9258 17.9241 55.5176 18.2201 55.125 18.536C54.95 18.711 54.536 19.145 54.458 19.228C54.2469 19.4759 53.997 19.688 53.718 19.856C53.4036 20.0108 53.0657 20.1122 52.718 20.156C52.4357 20.2405 52.1894 20.4163 52.018 20.656C52.018 20.656 50.445 22.478 49.392 23.842C48.624 24.879 47.7562 25.8383 46.801 26.706C46.509 26.881 44.073 28.46 43.625 28.732C43.177 29.004 42.592 29.609 42.047 29.901C40.9765 30.4962 39.8383 30.9605 38.657 31.284C37.957 31.323 36.611 31.479 36.241 32.317C35.6642 33.8234 35.316 35.4076 35.208 37.017C34.994 39.277 34.292 45.161 34.195 46.135C33.8427 48.2572 33.6572 50.4038 33.64 52.555" fill="#0059A6"/>
</g>
<mask id="mask5_4_469" style="mask-type:luminance" maskUnits="userSpaceOnUse" x="1" y="0" width="296" height="57">
<path d="M297 0H1V57H297V0Z" fill="white"/>
</mask>
<g mask="url(#mask5_4_469)">
<path d="M29.393 16.215C29.1771 16.215 28.9701 16.1292 28.8174 15.9766C28.6648 15.8239 28.579 15.6169 28.579 15.401V10.594C28.579 10.3781 28.6648 10.1711 28.8174 10.0184C28.9701 9.86576 29.1771 9.77999 29.393 9.77999C29.6089 9.77999 29.816 9.86576 29.9686 10.0184C30.1213 10.1711 30.207 10.3781 30.207 10.594V15.401C30.207 15.6169 30.1213 15.8239 29.9686 15.9766C29.816 16.1292 29.6089 16.215 29.393 16.215Z" fill="#0C415B"/>
<path d="M29.393 51.346C29.1771 51.346 28.9701 51.2603 28.8174 51.1076C28.6648 50.955 28.579 50.7479 28.579 50.532V45.725C28.579 45.5091 28.6648 45.3021 28.8174 45.1494C28.9701 44.9968 29.1771 44.911 29.393 44.911C29.6089 44.911 29.816 44.9968 29.9686 45.1494C30.1213 45.3021 30.207 45.5091 30.207 45.725V50.532C30.207 50.7479 30.1213 50.955 29.9686 51.1076C29.816 51.2603 29.6089 51.346 29.393 51.346Z" fill="#0C415B"/>
<path d="M14.231 31.272H9.42401C9.20812 31.272 9.00107 31.1863 8.84842 31.0336C8.69576 30.8809 8.61002 30.6739 8.61002 30.458C8.61002 30.2421 8.69576 30.0351 8.84842 29.8824C9.00107 29.7298 9.20812 29.644 9.42401 29.644H14.231C14.4469 29.644 14.654 29.7298 14.8066 29.8824C14.9593 30.0351 15.045 30.2421 15.045 30.458C15.045 30.6739 14.9593 30.8809 14.8066 31.0336C14.654 31.1863 14.4469 31.272 14.231 31.272Z" fill="#0C415B"/>
<path d="M49.359 31.272H44.559C44.3431 31.272 44.1361 31.1863 43.9834 31.0336C43.8307 30.8809 43.745 30.6739 43.745 30.458C43.745 30.2421 43.8307 30.0351 43.9834 29.8824C44.1361 29.7298 44.3431 29.644 44.559 29.644H49.359C49.5749 29.644 49.7819 29.7298 49.9346 29.8824C50.0872 30.0351 50.173 30.2421 50.173 30.458C50.173 30.6739 50.0872 30.8809 49.9346 31.0336C49.7819 31.1863 49.5749 31.272 49.359 31.272Z" fill="#0C415B"/>
<path d="M15.273 45.392C15.1122 45.3918 14.955 45.3439 14.8214 45.2545C14.6877 45.165 14.5836 45.038 14.5221 44.8894C14.4606 44.7408 14.4445 44.5773 14.4758 44.4196C14.5071 44.2618 14.5844 44.1168 14.698 44.003L18.098 40.603C18.1731 40.5253 18.263 40.4633 18.3623 40.4207C18.4616 40.378 18.5684 40.3556 18.6764 40.3547C18.7845 40.3538 18.8917 40.3744 18.9917 40.4153C19.0917 40.4562 19.1826 40.5166 19.259 40.593C19.3354 40.6695 19.3959 40.7603 19.4368 40.8604C19.4777 40.9604 19.4983 41.0675 19.4974 41.1756C19.4965 41.2837 19.474 41.3905 19.4314 41.4898C19.3887 41.5891 19.3268 41.6789 19.249 41.754L15.849 45.154C15.7736 45.2296 15.684 45.2896 15.5853 45.3304C15.4866 45.3712 15.3808 45.3922 15.274 45.392" fill="#0C415B"/>
<path d="M40.112 20.55C39.9512 20.5498 39.7941 20.5019 39.6604 20.4124C39.5268 20.323 39.4226 20.1959 39.3611 20.0473C39.2996 19.8987 39.2835 19.7353 39.3148 19.5775C39.3461 19.4198 39.4234 19.2748 39.537 19.161L42.937 15.761C43.0905 15.6127 43.2961 15.5306 43.5096 15.5324C43.7231 15.5342 43.9273 15.6199 44.0782 15.7708C44.2291 15.9218 44.3148 16.1259 44.3166 16.3394C44.3184 16.5528 44.2364 16.7585 44.088 16.912L40.688 20.312C40.6125 20.3876 40.5229 20.4475 40.4243 20.4883C40.3256 20.5292 40.2188 20.5501 40.112 20.55Z" fill="#0C415B"/>
<path d="M18.724 20.55C18.6172 20.5501 18.5114 20.5292 18.4127 20.4883C18.3141 20.4475 18.2244 20.3876 18.149 20.312L14.749 16.912C14.6007 16.7585 14.5186 16.5528 14.5204 16.3394C14.5222 16.1259 14.6078 15.9218 14.7588 15.7708C14.9097 15.6199 15.1139 15.5342 15.3274 15.5324C15.5408 15.5306 15.7465 15.6127 15.9 15.761L19.3 19.161C19.4136 19.2748 19.4909 19.4198 19.5222 19.5775C19.5536 19.7353 19.5374 19.8987 19.4759 20.0473C19.4144 20.1959 19.3103 20.323 19.1766 20.4124C19.043 20.5019 18.8848 20.5498 18.724 20.55Z" fill="#0C415B"/>
<path d="M43.5661 45.392C43.4593 45.3922 43.3535 45.3712 43.2548 45.3304C43.1561 45.2895 43.0665 45.2296 42.9911 45.154L39.591 41.754C39.4427 41.6005 39.3606 41.3949 39.3625 41.1814C39.3643 40.968 39.4499 40.7638 39.6009 40.6128C39.7518 40.4619 39.956 40.3763 40.1695 40.3744C40.3829 40.3726 40.5885 40.4547 40.742 40.603L44.1421 44.003C44.2557 44.1169 44.333 44.2618 44.3643 44.4195C44.3956 44.5773 44.3795 44.7408 44.318 44.8894C44.2564 45.038 44.1523 45.165 44.0186 45.2545C43.885 45.344 43.7269 45.3918 43.5661 45.392Z" fill="#0C415B"/>
<path d="M30.924 30.457C30.924 30.7495 30.8372 31.0355 30.6747 31.2787C30.5122 31.5219 30.2812 31.7115 30.011 31.8234C29.7407 31.9354 29.4434 31.9647 29.1565 31.9076C28.8696 31.8505 28.606 31.7096 28.3991 31.5028C28.1923 31.296 28.0515 31.0324 27.9944 30.7455C27.9374 30.4586 27.9666 30.1613 28.0786 29.891C28.1905 29.6208 28.38 29.3898 28.6233 29.2273C28.8665 29.0647 29.1525 28.978 29.445 28.978C29.8372 28.978 30.2135 29.1338 30.4908 29.4112C30.7682 29.6886 30.924 30.0647 30.924 30.457Z" fill="#C8ECF4"/>
<path d="M31.965 4.011H26.874C26.7164 4.011 26.5654 3.94842 26.454 3.83702C26.3426 3.72562 26.28 3.57454 26.28 3.417V2.861C26.28 2.70346 26.3426 2.55237 26.454 2.44098C26.5654 2.32958 26.7164 2.267 26.874 2.267H31.965C32.043 2.267 32.1203 2.28236 32.1923 2.31221C32.2644 2.34207 32.3299 2.38582 32.385 2.44098C32.4402 2.49613 32.4839 2.56162 32.5138 2.63369C32.5436 2.70575 32.559 2.78299 32.559 2.861V3.417C32.559 3.49501 32.5436 3.57225 32.5138 3.64431C32.4839 3.71638 32.4402 3.78186 32.385 3.83702C32.3299 3.89218 32.2644 3.93593 32.1923 3.96578C32.1203 3.99563 32.043 4.011 31.965 4.011Z" fill="#FFBA3D"/>
<path d="M86.453 22.624H77.597V44.624H72.067V22.624H63.167V18.176H86.448L86.453 22.624Z" fill="#1F5E8D"/>
<path d="M87.9751 18.776C87.9751 16.813 89.097 15.811 91.381 15.811C93.665 15.811 94.787 16.811 94.787 18.776C94.787 20.741 93.665 21.701 91.381 21.701C89.097 21.701 87.9751 20.739 87.9751 18.776ZM94.1061 44.622H88.6161V24.586H94.1061V44.622Z" fill="#1F5E8D"/>
<path d="M130.145 31.479L130.105 44.622H124.655V32.561C124.655 29.636 123.212 28.514 121.209 28.514C118.765 28.514 116.801 30.357 116.801 33.843V44.622H111.311V32.561C111.311 29.636 109.868 28.514 107.825 28.514C105.701 28.514 103.417 30.077 103.417 34.004V44.623H97.927V24.587H102.856L103.056 28.113C103.662 26.8902 104.608 25.8688 105.781 25.172C106.955 24.4752 108.304 24.1328 109.668 24.186C111.042 24.1001 112.408 24.4435 113.578 25.1685C114.749 25.8936 115.664 26.9645 116.199 28.233C116.827 26.9768 117.804 25.9275 119.011 25.2101C120.219 24.4926 121.607 24.1372 123.011 24.186C126.898 24.186 130.185 26.55 130.145 31.479Z" fill="#1F5E8D"/>
<path d="M152.732 36.688H138.547C139.108 39.573 140.871 40.935 143.556 40.935C145.88 40.935 147.403 40.053 147.964 38.451L152.452 40.094C151.17 43.3 148.084 45.023 143.552 45.023C136.9 45.023 133.134 41.176 133.134 34.605C133.134 28.034 136.78 24.187 143.234 24.187C149.485 24.187 152.891 27.954 152.891 34.525C152.879 35.2488 152.826 35.9713 152.731 36.689M138.506 32.842H147.842C147.401 29.837 145.718 28.234 143.194 28.234C140.549 28.234 138.947 29.797 138.506 32.842Z" fill="#1F5E8D"/>
<path d="M182.285 22.624H173.43V44.624H167.9V22.624H159V18.176H182.281L182.285 22.624Z" fill="#1F5E8D"/>
<path d="M196.49 24.627L195.809 29.436C195.037 29.0122 194.165 28.8048 193.285 28.836C190.885 28.836 188.476 30.599 188.476 34.246V44.624H182.986V24.587H187.755L188.116 28.514C188.523 27.2051 189.355 26.069 190.48 25.2853C191.604 24.5016 192.958 24.1148 194.327 24.186C195.074 24.1546 195.816 24.306 196.491 24.627" fill="#1F5E8D"/>
<path d="M218.589 41.136L218.189 44.462C217.377 44.8476 216.488 45.0396 215.589 45.023C213.189 45.023 211.542 44.181 210.981 42.018C209.781 43.982 207.255 45.023 203.889 45.023C200.082 45.023 197.678 43.26 197.678 39.894C197.678 36.768 200.122 34.565 205.492 33.563L210.301 32.641V31.679C210.347 31.2167 210.291 30.7499 210.137 30.3115C209.984 29.8731 209.736 29.4737 209.411 29.1414C209.086 28.8091 208.693 28.552 208.258 28.3882C207.824 28.2243 207.358 28.1577 206.895 28.193C204.571 28.193 202.888 29.075 202.287 31.599L197.919 29.756C198.761 26.35 201.766 24.186 206.654 24.186C212.224 24.186 215.754 26.586 215.754 31.559V39.774C215.754 40.816 216.195 41.297 217.237 41.297C217.696 41.3079 218.155 41.254 218.599 41.137M210.304 38.092V36.007L206.016 36.969C204.253 37.369 203.331 38.011 203.331 39.333C203.331 40.615 204.172 41.296 205.615 41.296C207.699 41.296 210.303 40.214 210.303 38.09" fill="#1F5E8D"/>
<path d="M238.384 30.076L233.255 31.919C232.774 29.519 231.492 28.272 229.368 28.272C226.243 28.272 224.479 30.436 224.479 34.643C224.479 38.931 226.362 40.934 229.328 40.934C229.836 40.9744 230.347 40.9142 230.832 40.7567C231.316 40.5992 231.765 40.3476 232.152 40.0163C232.539 39.685 232.857 39.2805 233.088 38.826C233.318 38.3716 233.457 37.8761 233.495 37.368L238.464 38.968C237.623 42.534 234.497 45.019 229.408 45.019C222.756 45.019 218.99 41.172 218.99 34.601C218.99 28.03 222.797 24.183 229.208 24.183C234.858 24.183 237.423 26.783 238.384 30.073" fill="#1F5E8D"/>
<path d="M250.166 35.767L246.52 39.654V44.623H241.03V15.812H246.52V33.764L255.22 24.588H261.431L253.897 32.442L261.911 44.624H255.7L250.166 35.767Z" fill="#1F5E8D"/>
<path d="M280.631 36.688H266.446C267.007 39.573 268.77 40.935 271.455 40.935C273.779 40.935 275.302 40.053 275.863 38.451L280.351 40.094C279.069 43.3 275.983 45.023 271.451 45.023C264.799 45.023 261.033 41.176 261.033 34.605C261.033 28.034 264.679 24.187 271.133 24.187C277.383 24.187 280.79 27.954 280.79 34.525C280.778 35.2488 280.724 35.9713 280.63 36.689M266.404 32.842H275.741C275.3 29.837 273.617 28.234 271.093 28.234C268.448 28.234 266.845 29.797 266.404 32.842Z" fill="#1F5E8D"/>
<path d="M297.348 24.627L296.667 29.436C295.895 29.0122 295.023 28.8048 294.143 28.836C291.743 28.836 289.334 30.599 289.334 34.246V44.624H283.845V24.587H288.613L288.974 28.514C289.381 27.2051 290.213 26.069 291.338 25.2853C292.462 24.5016 293.816 24.1148 295.185 24.186C295.931 24.1547 296.674 24.3061 297.348 24.627Z" fill="#1F5E8D"/>
</g>
<mask id="mask6_4_469" style="mask-type:luminance" maskUnits="userSpaceOnUse" x="1" y="0" width="296" height="57">
<path d="M297 0H1V57H297V0Z" fill="white"/>
</mask>
<g mask="url(#mask6_4_469)">
<path d="M29.393 16.215C29.1771 16.215 28.9701 16.1292 28.8174 15.9766C28.6648 15.8239 28.579 15.6169 28.579 15.401V10.594C28.579 10.3781 28.6648 10.1711 28.8174 10.0184C28.9701 9.86576 29.1771 9.77999 29.393 9.77999C29.6089 9.77999 29.816 9.86576 29.9686 10.0184C30.1213 10.1711 30.207 10.3781 30.207 10.594V15.401C30.207 15.6169 30.1213 15.8239 29.9686 15.9766C29.816 16.1292 29.6089 16.215 29.393 16.215Z" fill="#0C415B"/>
<path d="M29.393 51.346C29.1771 51.346 28.9701 51.2603 28.8174 51.1076C28.6648 50.955 28.579 50.7479 28.579 50.532V45.725C28.579 45.5091 28.6648 45.3021 28.8174 45.1494C28.9701 44.9968 29.1771 44.911 29.393 44.911C29.6089 44.911 29.816 44.9968 29.9686 45.1494C30.1213 45.3021 30.207 45.5091 30.207 45.725V50.532C30.207 50.7479 30.1213 50.955 29.9686 51.1076C29.816 51.2603 29.6089 51.346 29.393 51.346Z" fill="#0C415B"/>
<path d="M14.231 31.272H9.42401C9.20812 31.272 9.00107 31.1863 8.84842 31.0336C8.69576 30.8809 8.61002 30.6739 8.61002 30.458C8.61002 30.2421 8.69576 30.0351 8.84842 29.8824C9.00107 29.7298 9.20812 29.644 9.42401 29.644H14.231C14.4469 29.644 14.654 29.7298 14.8066 29.8824C14.9593 30.0351 15.045 30.2421 15.045 30.458C15.045 30.6739 14.9593 30.8809 14.8066 31.0336C14.654 31.1863 14.4469 31.272 14.231 31.272Z" fill="#0C415B"/>
<path d="M49.359 31.272H44.559C44.3431 31.272 44.1361 31.1863 43.9834 31.0336C43.8307 30.8809 43.745 30.6739 43.745 30.458C43.745 30.2421 43.8307 30.0351 43.9834 29.8824C44.1361 29.7298 44.3431 29.644 44.559 29.644H49.359C49.5749 29.644 49.7819 29.7298 49.9346 29.8824C50.0872 30.0351 50.173 30.2421 50.173 30.458C50.173 30.6739 50.0872 30.8809 49.9346 31.0336C49.7819 31.1863 49.5749 31.272 49.359 31.272Z" fill="#0C415B"/>
<path d="M15.273 45.392C15.1122 45.3918 14.955 45.3439 14.8214 45.2545C14.6877 45.165 14.5836 45.038 14.5221 44.8894C14.4606 44.7408 14.4445 44.5773 14.4758 44.4196C14.5071 44.2618 14.5844 44.1168 14.698 44.003L18.098 40.603C18.1731 40.5253 18.263 40.4633 18.3623 40.4207C18.4616 40.378 18.5684 40.3556 18.6764 40.3547C18.7845 40.3538 18.8917 40.3744 18.9917 40.4153C19.0917 40.4562 19.1826 40.5166 19.259 40.593C19.3354 40.6695 19.3959 40.7603 19.4368 40.8604C19.4777 40.9604 19.4983 41.0675 19.4974 41.1756C19.4965 41.2837 19.474 41.3905 19.4314 41.4898C19.3887 41.5891 19.3268 41.6789 19.249 41.754L15.849 45.154C15.7736 45.2296 15.684 45.2896 15.5853 45.3304C15.4866 45.3712 15.3808 45.3922 15.274 45.392" fill="#0C415B"/>
<path d="M40.112 20.55C39.9512 20.5498 39.7941 20.5019 39.6604 20.4124C39.5268 20.323 39.4226 20.1959 39.3611 20.0473C39.2996 19.8987 39.2835 19.7353 39.3148 19.5775C39.3461 19.4198 39.4234 19.2748 39.537 19.161L42.937 15.761C43.0905 15.6127 43.2961 15.5306 43.5096 15.5324C43.7231 15.5342 43.9273 15.6199 44.0782 15.7708C44.2291 15.9218 44.3148 16.1259 44.3166 16.3394C44.3184 16.5528 44.2364 16.7585 44.088 16.912L40.688 20.312C40.6125 20.3876 40.5229 20.4475 40.4243 20.4883C40.3256 20.5292 40.2188 20.5501 40.112 20.55Z" fill="#0C415B"/>
<path d="M18.724 20.55C18.6172 20.5501 18.5114 20.5292 18.4127 20.4883C18.3141 20.4475 18.2244 20.3876 18.149 20.312L14.749 16.912C14.6007 16.7585 14.5186 16.5528 14.5204 16.3394C14.5222 16.1259 14.6078 15.9218 14.7588 15.7708C14.9097 15.6199 15.1139 15.5342 15.3274 15.5324C15.5408 15.5306 15.7465 15.6127 15.9 15.761L19.3 19.161C19.4136 19.2748 19.4909 19.4198 19.5222 19.5775C19.5536 19.7353 19.5374 19.8987 19.4759 20.0473C19.4144 20.1959 19.3103 20.323 19.1766 20.4124C19.043 20.5019 18.8848 20.5498 18.724 20.55Z" fill="#0C415B"/>
<path d="M43.5661 45.392C43.4593 45.3922 43.3535 45.3712 43.2548 45.3304C43.1561 45.2895 43.0665 45.2296 42.9911 45.154L39.591 41.754C39.4427 41.6005 39.3606 41.3949 39.3625 41.1814C39.3643 40.968 39.4499 40.7638 39.6009 40.6128C39.7518 40.4619 39.956 40.3763 40.1695 40.3744C40.3829 40.3726 40.5885 40.4547 40.742 40.603L44.1421 44.003C44.2557 44.1169 44.333 44.2618 44.3643 44.4195C44.3956 44.5773 44.3795 44.7408 44.318 44.8894C44.2564 45.038 44.1523 45.165 44.0186 45.2545C43.885 45.344 43.7269 45.3918 43.5661 45.392Z" fill="#0C415B"/>
<path d="M30.924 30.457C30.924 30.7495 30.8372 31.0355 30.6747 31.2787C30.5122 31.5219 30.2812 31.7115 30.011 31.8234C29.7407 31.9354 29.4434 31.9647 29.1565 31.9076C28.8696 31.8505 28.606 31.7096 28.3991 31.5028C28.1923 31.296 28.0515 31.0324 27.9944 30.7455C27.9374 30.4586 27.9666 30.1613 28.0786 29.891C28.1905 29.6208 28.38 29.3898 28.6233 29.2273C28.8665 29.0647 29.1525 28.978 29.445 28.978C29.8372 28.978 30.2135 29.1338 30.4908 29.4112C30.7682 29.6886 30.924 30.0647 30.924 30.457Z" fill="#C8ECF4"/>
<path d="M31.965 4.011H26.874C26.7164 4.011 26.5654 3.94842 26.454 3.83702C26.3426 3.72562 26.28 3.57454 26.28 3.417V2.861C26.28 2.70346 26.3426 2.55237 26.454 2.44098C26.5654 2.32958 26.7164 2.267 26.874 2.267H31.965C32.043 2.267 32.1203 2.28236 32.1923 2.31221C32.2644 2.34207 32.3299 2.38582 32.385 2.44098C32.4402 2.49613 32.4839 2.56162 32.5138 2.63369C32.5436 2.70575 32.559 2.78299 32.559 2.861V3.417C32.559 3.49501 32.5436 3.57225 32.5138 3.64431C32.4839 3.71638 32.4402 3.78186 32.385 3.83702C32.3299 3.89218 32.2644 3.93593 32.1923 3.96578C32.1203 3.99563 32.043 4.011 31.965 4.011Z" fill="#FFBA3D"/>
<path d="M86.453 22.624H77.597V44.624H72.067V22.624H63.167V18.176H86.448L86.453 22.624Z" fill="#1F5E8D"/>
<path d="M87.9751 18.776C87.9751 16.813 89.097 15.811 91.381 15.811C93.665 15.811 94.787 16.811 94.787 18.776C94.787 20.741 93.665 21.701 91.381 21.701C89.097 21.701 87.9751 20.739 87.9751 18.776ZM94.1061 44.622H88.6161V24.586H94.1061V44.622Z" fill="#1F5E8D"/>
<path d="M130.145 31.479L130.105 44.622H124.655V32.561C124.655 29.636 123.212 28.514 121.209 28.514C118.765 28.514 116.801 30.357 116.801 33.843V44.622H111.311V32.561C111.311 29.636 109.868 28.514 107.825 28.514C105.701 28.514 103.417 30.077 103.417 34.004V44.623H97.927V24.587H102.856L103.056 28.113C103.662 26.8902 104.608 25.8688 105.781 25.172C106.955 24.4752 108.304 24.1328 109.668 24.186C111.042 24.1001 112.408 24.4435 113.578 25.1685C114.749 25.8936 115.664 26.9645 116.199 28.233C116.827 26.9768 117.804 25.9275 119.011 25.2101C120.219 24.4926 121.607 24.1372 123.011 24.186C126.898 24.186 130.185 26.55 130.145 31.479Z" fill="#1F5E8D"/>
<path d="M152.732 36.688H138.547C139.108 39.573 140.871 40.935 143.556 40.935C145.88 40.935 147.403 40.053 147.964 38.451L152.452 40.094C151.17 43.3 148.084 45.023 143.552 45.023C136.9 45.023 133.134 41.176 133.134 34.605C133.134 28.034 136.78 24.187 143.234 24.187C149.485 24.187 152.891 27.954 152.891 34.525C152.879 35.2488 152.826 35.9713 152.731 36.689M138.506 32.842H147.842C147.401 29.837 145.718 28.234 143.194 28.234C140.549 28.234 138.947 29.797 138.506 32.842Z" fill="#1F5E8D"/>
<path d="M182.285 22.624H173.43V44.624H167.9V22.624H159V18.176H182.281L182.285 22.624Z" fill="#1F5E8D"/>
<path d="M196.49 24.627L195.809 29.436C195.037 29.0122 194.165 28.8048 193.285 28.836C190.885 28.836 188.476 30.599 188.476 34.246V44.624H182.986V24.587H187.755L188.116 28.514C188.523 27.2051 189.355 26.069 190.48 25.2853C191.604 24.5016 192.958 24.1148 194.327 24.186C195.074 24.1546 195.816 24.306 196.491 24.627" fill="#1F5E8D"/>
<path d="M218.589 41.136L218.189 44.462C217.377 44.8476 216.488 45.0396 215.589 45.023C213.189 45.023 211.542 44.181 210.981 42.018C209.781 43.982 207.255 45.023 203.889 45.023C200.082 45.023 197.678 43.26 197.678 39.894C197.678 36.768 200.122 34.565 205.492 33.563L210.301 32.641V31.679C210.347 31.2167 210.291 30.7499 210.137 30.3115C209.984 29.8731 209.736 29.4737 209.411 29.1414C209.086 28.8091 208.693 28.552 208.258 28.3882C207.824 28.2243 207.358 28.1577 206.895 28.193C204.571 28.193 202.888 29.075 202.287 31.599L197.919 29.756C198.761 26.35 201.766 24.186 206.654 24.186C212.224 24.186 215.754 26.586 215.754 31.559V39.774C215.754 40.816 216.195 41.297 217.237 41.297C217.696 41.3079 218.155 41.254 218.599 41.137M210.304 38.092V36.007L206.016 36.969C204.253 37.369 203.331 38.011 203.331 39.333C203.331 40.615 204.172 41.296 205.615 41.296C207.699 41.296 210.303 40.214 210.303 38.09" fill="#1F5E8D"/>
<path d="M238.384 30.076L233.255 31.919C232.774 29.519 231.492 28.272 229.368 28.272C226.243 28.272 224.479 30.436 224.479 34.643C224.479 38.931 226.362 40.934 229.328 40.934C229.836 40.9744 230.347 40.9142 230.832 40.7567C231.316 40.5992 231.765 40.3476 232.152 40.0163C232.539 39.685 232.857 39.2805 233.088 38.826C233.318 38.3716 233.457 37.8761 233.495 37.368L238.464 38.968C237.623 42.534 234.497 45.019 229.408 45.019C222.756 45.019 218.99 41.172 218.99 34.601C218.99 28.03 222.797 24.183 229.208 24.183C234.858 24.183 237.423 26.783 238.384 30.073" fill="#1F5E8D"/>
<path d="M250.166 35.767L246.52 39.654V44.623H241.03V15.812H246.52V33.764L255.22 24.588H261.431L253.897 32.442L261.911 44.624H255.7L250.166 35.767Z" fill="#1F5E8D"/>
<path d="M280.631 36.688H266.446C267.007 39.573 268.77 40.935 271.455 40.935C273.779 40.935 275.302 40.053 275.863 38.451L280.351 40.094C279.069 43.3 275.983 45.023 271.451 45.023C264.799 45.023 261.033 41.176 261.033 34.605C261.033 28.034 264.679 24.187 271.133 24.187C277.383 24.187 280.79 27.954 280.79 34.525C280.778 35.2488 280.724 35.9713 280.63 36.689M266.404 32.842H275.741C275.3 29.837 273.617 28.234 271.093 28.234C268.448 28.234 266.845 29.797 266.404 32.842Z" fill="#1F5E8D"/>
<path d="M297.348 24.627L296.667 29.436C295.895 29.0122 295.023 28.8048 294.143 28.836C291.743 28.836 289.334 30.599 289.334 34.246V44.624H283.845V24.587H288.613L288.974 28.514C289.381 27.2051 290.213 26.069 291.338 25.2853C292.462 24.5016 293.816 24.1148 295.185 24.186C295.931 24.1547 296.674 24.3061 297.348 24.627Z" fill="#1F5E8D"/>
</g>
</g>
<defs>
<clipPath id="clip0_4_469">
<rect width="297" height="57" fill="white"/>
</clipPath>
</defs>
</svg>
